# xmcd CD database file
#
# Track frame offsets:
#	150
#	22450
#	42045
#
# Disc length: 784 seconds
#
# Revision: 0
# Processed by: cddbd v1.5.1PL0 Copyright (c) Steve Scherf et al.
# Submitted via: CDex 1.51
#
DISCID=21030e03
DTITLE=Fantastic Plastic Machine - Summer Review ep (Single)
DYEAR=1998
DGENRE=Electronic
TTITLE0=There Must Be An Angel (Playing With My Heart)
TTITLE1=Electric Lady Land (Japanese Version)
TTITLE2=Bossa For Jackie (Instrumental)
EXTD=YEAR: 1998
EXTT0=
EXTT1=
EXTT2=
PLAYORDER=
